<svg width="497" height="83" viewBox="0 0 497 83" fill="none" xmlns="http://www.w3.org/2000/svg">
<path d="M24.7783 11.5C36.1074 11.5 44.8098 14.12 50.8857 19.3594C56.9617 24.5425 60 31.9512 60 41.585C59.9999 51.1621 56.9939 58.5426 50.9814 63.7256C45.0321 68.9087 36.4869 71.5 25.3477 71.5H0C0 71.5 0.288124 52.5001 13 46C18 44 21.8541 46.2812 23 48C26.5324 53.2986 28.4965 59.9881 28.5 60C28.5033 59.9861 30.551 51.449 34 48C37.4496 44.5504 44.9906 42.0032 45 42C45 42 37.4518 38.4518 34 35C30.5517 31.5517 28.5042 23.0175 28.5 23C28.4955 23.0153 26.5314 29.7027 23 35C21.8899 36.6651 18.238 39.7965 13.4648 38.1719L13 38C0.288124 31.5678 0 11.5 0 11.5H24.7783Z" fill="white"/>
<path d="M68.3613 64V18.56H81.6733C88.4999 18.56 93.7479 20.544 97.4173 24.512C101.087 28.4373 102.921 34.048 102.921 41.344C102.921 48.5973 101.108 54.1867 97.4813 58.112C93.8973 62.0373 88.7559 64 82.0573 64H68.3613ZM71.5613 60.928H81.6733C87.4759 60.928 91.8919 59.264 94.9213 55.936C97.9933 52.5653 99.5293 47.7013 99.5293 41.344C99.5293 34.944 97.9933 30.0587 94.9213 26.688C91.8919 23.3173 87.4759 21.632 81.6733 21.632H71.5613V60.928ZM111.361 64V18.56H114.561V64H111.361ZM140.834 65.024C137.506 65.024 134.562 64.3627 132.002 63.04C129.485 61.6747 127.48 59.8613 125.986 57.6C124.493 55.296 123.704 52.6933 123.618 49.792L126.946 49.536C127.074 51.8827 127.714 53.9947 128.866 55.872C130.018 57.7067 131.618 59.1787 133.666 60.288C135.757 61.3547 138.189 61.888 140.962 61.888C143.309 61.888 145.378 61.5253 147.17 60.8C149.005 60.032 150.434 58.9653 151.458 57.6C152.525 56.192 153.058 54.4853 153.058 52.48C153.058 50.944 152.674 49.5573 151.906 48.32C151.181 47.0827 149.794 45.952 147.746 44.928C145.741 43.904 142.776 42.9227 138.85 41.984C135.48 41.1733 132.749 40.2773 130.658 39.296C128.568 38.3147 127.032 37.0773 126.05 35.584C125.069 34.0907 124.578 32.192 124.578 29.888C124.578 27.5413 125.154 25.4507 126.306 23.616C127.501 21.7387 129.208 20.2667 131.426 19.2C133.645 18.0907 136.333 17.536 139.49 17.536C142.818 17.536 145.634 18.1973 147.938 19.52C150.242 20.8427 152.013 22.592 153.25 24.768C154.488 26.9013 155.17 29.2053 155.298 31.68L151.906 31.936C151.821 29.8453 151.288 27.968 150.306 26.304C149.325 24.5973 147.917 23.232 146.082 22.208C144.248 21.184 142.008 20.672 139.362 20.672C135.778 20.672 132.984 21.5467 130.978 23.296C128.973 25.0027 127.97 27.2 127.97 29.888C127.97 31.552 128.333 32.9387 129.058 34.048C129.784 35.1147 131.042 36.0533 132.834 36.864C134.626 37.632 137.165 38.4 140.45 39.168C144.589 40.1493 147.81 41.28 150.114 42.56C152.461 43.7973 154.082 45.2267 154.978 46.848C155.917 48.4693 156.386 50.3253 156.386 52.416C156.386 55.0187 155.704 57.2587 154.338 59.136C152.973 61.0133 151.117 62.464 148.77 63.488C146.424 64.512 143.778 65.024 140.834 65.024ZM165.549 64V18.56H181.101C186.007 18.56 189.826 19.7547 192.557 22.144C195.287 24.4907 196.653 27.7333 196.653 31.872C196.653 34.6027 196.034 36.9707 194.797 38.976C193.559 40.9387 191.767 42.4533 189.421 43.52C187.117 44.5867 184.343 45.12 181.101 45.12H168.749V64H165.549ZM168.749 42.048H181.101C185.026 42.048 188.034 41.1733 190.125 39.424C192.258 37.6747 193.325 35.1573 193.325 31.872C193.325 28.5867 192.258 26.0693 190.125 24.32C188.034 22.528 185.026 21.632 181.101 21.632H168.749V42.048ZM205.799 64V18.56H208.999V62.272L207.783 60.928H232.871V64H205.799ZM235.753 64L252.393 18.56H256.489L273.193 64H269.801L264.617 49.664H244.329L239.145 64H235.753ZM245.417 46.592H263.529L254.441 21.504L245.417 46.592ZM287.159 64V45.44L270.839 18.56H274.615L288.759 42.304L302.839 18.56H306.615L290.359 45.44V64H287.159ZM321.062 64L308.774 18.56H318.95L326.758 50.56L334.63 18.56H343.142L351.078 50.56L358.822 18.56H368.998L356.774 64H346.278L338.854 34.944L331.43 64H321.062ZM365.247 64L381.631 18.56H393.151L409.535 64H399.423L396.095 54.336H378.623L375.295 64H365.247ZM381.375 46.336H393.407L387.391 28.8L381.375 46.336ZM413.83 64V18.56H433.734C437.062 18.56 439.942 19.1147 442.374 20.224C444.848 21.3333 446.747 22.912 448.07 24.96C449.392 26.9653 450.054 29.3547 450.054 32.128C450.054 34.2187 449.606 36.0747 448.71 37.696C447.856 39.3173 446.662 40.64 445.126 41.664C443.632 42.688 441.904 43.328 439.942 43.584L439.75 43.008C442.779 43.008 445.083 43.6693 446.662 44.992C448.24 46.272 449.136 48.256 449.35 50.944L450.502 64H440.582L439.75 52.48C439.622 50.7307 439.067 49.4507 438.086 48.64C437.147 47.7867 435.526 47.36 433.222 47.36H423.558V64H413.83ZM423.558 39.232H432.646C434.992 39.232 436.806 38.6987 438.086 37.632C439.408 36.5227 440.07 34.9653 440.07 32.96C440.07 30.912 439.408 29.376 438.086 28.352C436.763 27.2853 434.843 26.752 432.326 26.752H423.558V39.232ZM458.455 64V18.56H476.631C482.092 18.56 486.359 19.8827 489.431 22.528C492.545 25.1733 494.103 28.8 494.103 33.408C494.103 36.4373 493.399 39.0827 491.991 41.344C490.625 43.5627 488.62 45.2907 485.975 46.528C483.372 47.7227 480.257 48.32 476.631 48.32H468.183V64H458.455ZM468.183 40.128H476.055C478.615 40.128 480.599 39.5733 482.007 38.464C483.415 37.312 484.119 35.6267 484.119 33.408C484.119 31.232 483.415 29.5893 482.007 28.48C480.641 27.328 478.657 26.752 476.055 26.752H468.183V40.128Z" fill="white"/>
</svg>
