<svg width="8" height="8" viewBox="0 0 8 8" fill="none" xmlns="http://www.w3.org/2000/svg">
<path d="M3.30371 0C4.81426 0 5.97503 0.34926 6.78516 1.04785C7.59516 1.73892 8 2.72731 8 4.01172C7.99991 5.28849 7.59944 6.27287 6.79785 6.96387C6.00463 7.65491 4.86503 7.99998 3.37988 8H0C0 8 0.305083 5.36668 2 4.5C2.99985 4.00008 3.27073 4.40512 3.40039 4.59961C3.7999 5.19888 3.99951 5.99806 4 6C4 6 4.20909 4.99014 4.59961 4.59961C4.98959 4.20963 5.99722 4.00058 6 4C5.99656 3.99929 4.98947 3.79025 4.59961 3.40039C4.20975 3.01053 4.00071 2.00344 4 2C3.9994 2.00239 3.79978 2.80129 3.40039 3.40039C3.27881 3.58276 3.03309 3.95 2.17871 3.58301L2 3.5C0.305083 2.64237 0 0 0 0H3.30371Z" fill="white"/>
</svg>
