<svg width="60" height="60" viewBox="0 0 60 60" fill="none" xmlns="http://www.w3.org/2000/svg">
<path d="M24.7783 0C36.1074 0 44.8098 2.61999 50.8857 7.85938C56.9617 13.0425 60 20.4512 60 30.085C59.9999 39.6621 56.9939 47.0426 50.9814 52.2256C45.0321 57.4087 36.4869 60 25.3477 60H0C0 60 0.288124 41.0001 13 34.5C18 32.5 21.8541 34.7812 23 36.5C26.5324 41.7986 28.4965 48.4881 28.5 48.5C28.5033 48.4861 30.551 39.949 34 36.5C37.4496 33.0504 44.9906 30.5032 45 30.5C45 30.5 37.4518 26.9518 34 23.5C30.5517 20.0517 28.5042 11.5175 28.5 11.5C28.4955 11.5153 26.5314 18.2027 23 23.5C21.8899 25.1651 18.238 28.2965 13.4648 26.6719L13 26.5C0.288124 20.0678 0 0 0 0H24.7783Z" fill="white"/>
</svg>
