<svg width="65" height="10" viewBox="0 0 65 10" fill="none" xmlns="http://www.w3.org/2000/svg">
<path d="M3.30371 1C4.81426 1 5.97503 1.34926 6.78516 2.04785C7.59516 2.73892 8 3.72731 8 5.01172C7.99991 6.28849 7.59944 7.27287 6.79785 7.96387C6.00463 8.65491 4.86503 8.99998 3.37988 9H0C0 9 0.305083 6.36668 2 5.5C2.99985 5.00008 3.27073 5.40512 3.40039 5.59961C3.7999 6.19888 3.99951 6.99806 4 7C4 7 4.20909 5.99014 4.59961 5.59961C4.98959 5.20963 5.99722 5.00058 6 5C5.99656 4.99929 4.98947 4.79025 4.59961 4.40039C4.20975 4.01053 4.00071 3.00344 4 3C3.9994 3.00239 3.79978 3.80129 3.40039 4.40039C3.27881 4.58276 3.03309 4.95 2.17871 4.58301L2 4.5C0.305083 3.64237 0 1 0 1H3.30371Z" fill="white"/>
<path d="M11.1077 8V2.32H12.7717C13.625 2.32 14.281 2.568 14.7397 3.064C15.1983 3.55467 15.4277 4.256 15.4277 5.168C15.4277 6.07467 15.201 6.77333 14.7477 7.264C14.2997 7.75467 13.657 8 12.8197 8H11.1077ZM11.5077 7.616H12.7717C13.497 7.616 14.049 7.408 14.4277 6.992C14.8117 6.57067 15.0037 5.96267 15.0037 5.168C15.0037 4.368 14.8117 3.75733 14.4277 3.336C14.049 2.91467 13.497 2.704 12.7717 2.704H11.5077V7.616ZM16.4827 8V2.32H16.8827V8H16.4827ZM20.1668 8.128C19.7508 8.128 19.3828 8.04533 19.0628 7.88C18.7481 7.70933 18.4974 7.48267 18.3108 7.2C18.1241 6.912 18.0254 6.58667 18.0148 6.224L18.4308 6.192C18.4468 6.48533 18.5268 6.74933 18.6708 6.984C18.8148 7.21333 19.0148 7.39733 19.2708 7.536C19.5321 7.66933 19.8361 7.736 20.1828 7.736C20.4761 7.736 20.7348 7.69067 20.9588 7.6C21.1881 7.504 21.3668 7.37067 21.4948 7.2C21.6281 7.024 21.6948 6.81067 21.6948 6.56C21.6948 6.368 21.6468 6.19467 21.5508 6.04C21.4601 5.88533 21.2868 5.744 21.0308 5.616C20.7801 5.488 20.4094 5.36533 19.9188 5.248C19.4974 5.14667 19.1561 5.03467 18.8948 4.912C18.6334 4.78933 18.4414 4.63467 18.3188 4.448C18.1961 4.26133 18.1348 4.024 18.1348 3.736C18.1348 3.44267 18.2068 3.18133 18.3508 2.952C18.5001 2.71733 18.7134 2.53333 18.9908 2.4C19.2681 2.26133 19.6041 2.192 19.9988 2.192C20.4148 2.192 20.7668 2.27467 21.0548 2.44C21.3428 2.60533 21.5641 2.824 21.7188 3.096C21.8734 3.36267 21.9588 3.65067 21.9748 3.96L21.5508 3.992C21.5401 3.73067 21.4734 3.496 21.3508 3.288C21.2281 3.07467 21.0521 2.904 20.8228 2.776C20.5934 2.648 20.3134 2.584 19.9828 2.584C19.5348 2.584 19.1854 2.69333 18.9348 2.912C18.6841 3.12533 18.5588 3.4 18.5588 3.736C18.5588 3.944 18.6041 4.11733 18.6948 4.256C18.7854 4.38933 18.9428 4.50667 19.1668 4.608C19.3908 4.704 19.7081 4.8 20.1188 4.896C20.6361 5.01867 21.0388 5.16 21.3268 5.32C21.6201 5.47467 21.8228 5.65333 21.9348 5.856C22.0521 6.05867 22.1108 6.29067 22.1108 6.552C22.1108 6.87733 22.0254 7.15733 21.8548 7.392C21.6841 7.62667 21.4521 7.808 21.1588 7.936C20.8654 8.064 20.5348 8.128 20.1668 8.128ZM23.2561 8V2.32H25.2001C25.8134 2.32 26.2908 2.46933 26.6321 2.768C26.9734 3.06133 27.1441 3.46667 27.1441 3.984C27.1441 4.32533 27.0668 4.62133 26.9121 4.872C26.7574 5.11733 26.5334 5.30667 26.2401 5.44C25.9521 5.57333 25.6054 5.64 25.2001 5.64H23.6561V8H23.2561ZM23.6561 5.256H25.2001C25.6908 5.256 26.0668 5.14667 26.3281 4.928C26.5948 4.70933 26.7281 4.39467 26.7281 3.984C26.7281 3.57333 26.5948 3.25867 26.3281 3.04C26.0668 2.816 25.6908 2.704 25.2001 2.704H23.6561V5.256ZM28.2873 8V2.32H28.6873V7.784L28.5353 7.616H31.6713V8H28.2873ZM32.0317 8L34.1117 2.32H34.6237L36.7117 8H36.2877L35.6397 6.208H33.1037L32.4557 8H32.0317ZM33.2397 5.824H35.5037L34.3677 2.688L33.2397 5.824ZM38.4574 8V5.68L36.4174 2.32H36.8894L38.6574 5.288L40.4174 2.32H40.8894L38.8574 5.68V8H38.4574ZM42.6953 8L41.1593 2.32H42.4313L43.4073 6.32L44.3913 2.32H45.4553L46.4473 6.32L47.4153 2.32H48.6873L47.1593 8H45.8473L44.9193 4.368L43.9913 8H42.6953ZM48.2184 8L50.2664 2.32H51.7064L53.7544 8H52.4904L52.0744 6.792H49.8904L49.4744 8H48.2184ZM50.2344 5.792H51.7384L50.9864 3.6L50.2344 5.792ZM54.2912 8V2.32H56.7792C57.1952 2.32 57.5552 2.38933 57.8592 2.528C58.1686 2.66667 58.4059 2.864 58.5712 3.12C58.7366 3.37067 58.8192 3.66933 58.8192 4.016C58.8192 4.27733 58.7632 4.50933 58.6512 4.712C58.5446 4.91467 58.3952 5.08 58.2032 5.208C58.0166 5.336 57.8006 5.416 57.5552 5.448L57.5312 5.376C57.9099 5.376 58.1979 5.45867 58.3952 5.624C58.5926 5.784 58.7046 6.032 58.7312 6.368L58.8752 8H57.6352L57.5312 6.56C57.5152 6.34133 57.4459 6.18133 57.3232 6.08C57.2059 5.97333 57.0032 5.92 56.7152 5.92H55.5072V8H54.2912ZM55.5072 4.904H56.6432C56.9366 4.904 57.1632 4.83733 57.3232 4.704C57.4886 4.56533 57.5712 4.37067 57.5712 4.12C57.5712 3.864 57.4886 3.672 57.3232 3.544C57.1579 3.41067 56.9179 3.344 56.6032 3.344H55.5072V4.904ZM59.8693 8V2.32H62.1413C62.824 2.32 63.3573 2.48533 63.7413 2.816C64.1307 3.14667 64.3253 3.6 64.3253 4.176C64.3253 4.55467 64.2373 4.88533 64.0613 5.168C63.8907 5.44533 63.64 5.66133 63.3093 5.816C62.984 5.96533 62.5947 6.04 62.1413 6.04H61.0853V8H59.8693ZM61.0853 5.016H62.0693C62.3893 5.016 62.6373 4.94667 62.8133 4.808C62.9893 4.664 63.0773 4.45333 63.0773 4.176C63.0773 3.904 62.9893 3.69867 62.8133 3.56C62.6427 3.416 62.3947 3.344 62.0693 3.344H61.0853V5.016Z" fill="white"/>
</svg>
